<svg width="15" height="15" viewBox="0 0 15 15" fill="none" xmlns="http://www.w3.org/2000/svg">
<path d="M12.2057 4.71735C12.2057 2.11834 10.1038 0.0101953 7.50719 0C1.80576 0.143408 1.03106 8.07079 6.54016 9.33943V10.9728H4.93519C4.68886 10.9728 4.48914 11.1725 4.48914 11.4189V12.423C4.48914 12.6693 4.68883 12.8691 4.93519 12.8691H6.54016V14.5539C6.54016 14.8003 6.73985 15 6.9862 15H7.99035C8.23668 15 8.4364 14.8003 8.4364 14.5539V12.8691H10.0414C10.2877 12.8691 10.4874 12.6694 10.4874 12.423V11.4189C10.4874 11.1725 10.2877 10.9728 10.0414 10.9728H8.4364V9.33943C10.5873 8.90057 12.2057 6.99797 12.2057 4.71735ZM7.48826 7.50398C5.94927 7.50398 4.70166 6.25638 4.70166 4.71738C4.84844 1.02103 10.1286 1.02208 10.2749 4.71741C10.2749 6.25638 9.02726 7.50398 7.48826 7.50398Z" fill="#FF8383"/>
</svg>
