<svg width="20" height="20" viewBox="0 0 20 20" fill="none" xmlns="http://www.w3.org/2000/svg">
<path d="M3.75 8.125C3.91576 8.125 4.07473 8.05915 4.19194 7.94194C4.30915 7.82473 4.375 7.66576 4.375 7.5V4.375H7.5C7.66576 4.375 7.82473 4.30915 7.94194 4.19194C8.05915 4.07473 8.125 3.91576 8.125 3.75C8.125 3.58424 8.05915 3.42527 7.94194 3.30806C7.82473 3.19085 7.66576 3.125 7.5 3.125H3.75C3.58424 3.125 3.42527 3.19085 3.30806 3.30806C3.19085 3.42527 3.125 3.58424 3.125 3.75V7.5C3.125 7.66576 3.19085 7.82473 3.30806 7.94194C3.42527 8.05915 3.58424 8.125 3.75 8.125Z" fill="#2C90F4"/>
<path d="M12.5 4.375H15.625V7.5C15.625 7.66576 15.6908 7.82473 15.8081 7.94194C15.9253 8.05915 16.0842 8.125 16.25 8.125C16.4158 8.125 16.5747 8.05915 16.6919 7.94194C16.8092 7.82473 16.875 7.66576 16.875 7.5V3.75C16.875 3.58424 16.8092 3.42527 16.6919 3.30806C16.5747 3.19085 16.4158 3.125 16.25 3.125H12.5C12.3342 3.125 12.1753 3.19085 12.0581 3.30806C11.9408 3.42527 11.875 3.58424 11.875 3.75C11.875 3.91576 11.9408 4.07473 12.0581 4.19194C12.1753 4.30915 12.3342 4.375 12.5 4.375Z" fill="#2C90F4"/>
<path d="M7.5 15.625H4.375V12.5C4.375 12.3342 4.30915 12.1753 4.19194 12.0581C4.07473 11.9408 3.91576 11.875 3.75 11.875C3.58424 11.875 3.42527 11.9408 3.30806 12.0581C3.19085 12.1753 3.125 12.3342 3.125 12.5V16.25C3.125 16.4158 3.19085 16.5747 3.30806 16.6919C3.42527 16.8092 3.58424 16.875 3.75 16.875H7.5C7.66576 16.875 7.82473 16.8092 7.94194 16.6919C8.05915 16.5747 8.125 16.4158 8.125 16.25C8.125 16.0842 8.05915 15.9253 7.94194 15.8081C7.82473 15.6908 7.66576 15.625 7.5 15.625Z" fill="#2C90F4"/>
<path d="M16.25 11.875C16.0842 11.875 15.9253 11.9408 15.8081 12.0581C15.6908 12.1753 15.625 12.3342 15.625 12.5V15.625H12.5C12.3342 15.625 12.1753 15.6908 12.0581 15.8081C11.9408 15.9253 11.875 16.0842 11.875 16.25C11.875 16.4158 11.9408 16.5747 12.0581 16.6919C12.1753 16.8092 12.3342 16.875 12.5 16.875H16.25C16.4158 16.875 16.5747 16.8092 16.6919 16.6919C16.8092 16.5747 16.875 16.4158 16.875 16.25V12.5C16.875 12.3342 16.8092 12.1753 16.6919 12.0581C16.5747 11.9408 16.4158 11.875 16.25 11.875Z" fill="#2C90F4"/>
<path d="M18.75 9.375H1.25C1.08424 9.375 0.925268 9.44085 0.808058 9.55806C0.690848 9.67527 0.625 9.83424 0.625 10C0.625 10.1658 0.690848 10.3247 0.808058 10.4419C0.925268 10.5592 1.08424 10.625 1.25 10.625H18.75C18.9158 10.625 19.0747 10.5592 19.1919 10.4419C19.3092 10.3247 19.375 10.1658 19.375 10C19.375 9.83424 19.3092 9.67527 19.1919 9.55806C19.0747 9.44085 18.9158 9.375 18.75 9.375Z" fill="#2C90F4"/>
</svg>
