<svg width="16" height="16" viewBox="0 0 16 16" fill="none" xmlns="http://www.w3.org/2000/svg">
<g clip-path="url(#clip0_33_2303)">
<path d="M14.9809 9.82473C14.7221 9.82473 14.5121 9.61473 14.5121 9.35598C14.5121 7.5466 13.0403 6.07473 11.2309 6.07473H6.69965V8.10598C6.69965 8.51848 6.2034 8.72722 5.90715 8.44473L2.46965 5.16347C2.37715 5.07535 2.32465 4.95285 2.32465 4.82472C2.32465 4.6966 2.37715 4.5741 2.46965 4.48597L5.90715 1.20472C6.20465 0.920975 6.69965 1.13222 6.69965 1.54347V3.57472H10.6059C13.2765 3.57472 15.4496 5.74785 15.4496 8.41848V9.35598C15.4496 9.61473 15.2396 9.82473 14.9809 9.82473Z" fill="#2C90F4"/>
<path d="M9.19965 14.356V12.3247H5.2934C2.62277 12.3247 0.449646 10.1516 0.449646 7.48096V6.54346C0.449646 6.28471 0.659646 6.07471 0.918396 6.07471C1.17715 6.07471 1.38715 6.28471 1.38715 6.54346C1.38715 8.35283 2.85902 9.82471 4.6684 9.82471H9.19965V7.79346C9.19965 7.38283 9.69402 7.16971 9.99215 7.45471L13.4296 10.736C13.5221 10.8241 13.5746 10.9466 13.5746 11.0747C13.5746 11.2028 13.5221 11.3253 13.4296 11.4135L9.99215 14.6947C9.69402 14.9785 9.19965 14.7672 9.19965 14.356Z" fill="#2C90F4"/>
</g>
<defs>
<clipPath id="clip0_33_2303">
<rect width="15" height="15" fill="white" transform="translate(0.449646 0.449707)"/>
</clipPath>
</defs>
</svg>
