<svg width="20" height="20" viewBox="0 0 20 20" fill="none" xmlns="http://www.w3.org/2000/svg">
<g clip-path="url(#clip0_26_1423)">
<path d="M19.7423 15.8747L11.5386 2.26958C11.2154 1.7336 10.6259 1.40063 9.99998 1.40063C9.37408 1.40063 8.78451 1.7336 8.46127 2.26962L0.257634 15.8747C-0.076389 16.4287 -0.0862718 17.1228 0.231814 17.6861C0.549978 18.2493 1.14943 18.5993 1.79631 18.5993H18.2036C18.8505 18.5993 19.45 18.2493 19.7682 17.686C20.0863 17.1227 20.0764 16.4286 19.7423 15.8747ZM18.6344 17.0458C18.5468 17.2008 18.3817 17.2972 18.2036 17.2972H1.79631C1.61822 17.2972 1.45318 17.2008 1.36564 17.0458C1.27806 16.8907 1.2808 16.6996 1.37271 16.5472L9.57642 2.942C9.66541 2.79446 9.82771 2.70278 10 2.70278C10.1723 2.70278 10.3346 2.79446 10.4236 2.942L18.6272 16.5472C18.7192 16.6997 18.7219 16.8907 18.6344 17.0458Z" fill="#2C90F4"/>
<path d="M10.0059 6.75806C9.51059 6.75806 9.12402 7.02384 9.12402 7.49501C9.12402 8.93259 9.29312 10.9984 9.29312 12.436C9.29316 12.8105 9.61937 12.9675 10.0059 12.9675C10.2959 12.9675 10.7066 12.8105 10.7066 12.436C10.7066 10.9984 10.8757 8.93263 10.8757 7.49501C10.8757 7.02388 10.4771 6.75806 10.0059 6.75806Z" fill="#2C90F4"/>
<path d="M10.0181 13.801C9.4866 13.801 9.08789 14.2238 9.08789 14.7313C9.08789 15.2266 9.48656 15.6615 10.0181 15.6615C10.5134 15.6615 10.9363 15.2266 10.9363 14.7313C10.9363 14.2238 10.5134 13.801 10.0181 13.801Z" fill="#2C90F4"/>
</g>
<defs>
<clipPath id="clip0_26_1423">
<rect width="20" height="20" fill="white"/>
</clipPath>
</defs>
</svg>
