<svg width="30" height="30" viewBox="0 0 30 30" fill="none" xmlns="http://www.w3.org/2000/svg">
<g clip-path="url(#clip0_29_54)">
<path d="M19.6875 6.5625C19.6875 5.6354 19.4126 4.72912 18.8975 3.95827C18.3824 3.18741 17.6504 2.5866 16.7938 2.23182C15.9373 1.87703 14.9948 1.7842 14.0855 1.96507C13.1762 2.14594 12.341 2.59238 11.6854 3.24794C11.0299 3.9035 10.5834 4.73873 10.4026 5.64802C10.2217 6.5573 10.3145 7.4998 10.6693 8.35633C11.0241 9.21286 11.6249 9.94495 12.3958 10.46C13.1666 10.9751 14.0729 11.25 15 11.25C16.2428 11.2486 17.4342 10.7543 18.313 9.8755C19.1918 8.99673 19.6861 7.80527 19.6875 6.5625ZM11.25 6.5625C11.25 5.82082 11.4699 5.0958 11.882 4.47911C12.294 3.86243 12.8797 3.38178 13.5649 3.09795C14.2502 2.81413 15.0042 2.73986 15.7316 2.88456C16.459 3.02925 17.1272 3.3864 17.6517 3.91085C18.1761 4.4353 18.5333 5.10348 18.6779 5.83091C18.8226 6.55834 18.7484 7.31234 18.4646 7.99757C18.1807 8.68279 17.7001 9.26846 17.0834 9.68051C16.4667 10.0926 15.7417 10.3125 15 10.3125C14.0058 10.3114 13.0526 9.91591 12.3496 9.21289C11.6466 8.50988 11.2511 7.55671 11.25 6.5625Z" fill="#2C90F4"/>
<path d="M15.4688 9.375V8.90625C15.7173 8.90596 15.9556 8.8071 16.1313 8.63135C16.3071 8.45559 16.406 8.2173 16.4062 7.96875V7.03125C16.406 6.7827 16.3071 6.54441 16.1313 6.36865C15.9556 6.1929 15.7173 6.09404 15.4688 6.09375H14.5312V5.15625H15.4688C15.4688 5.28057 15.5181 5.3998 15.606 5.48771C15.694 5.57561 15.8132 5.625 15.9375 5.625C16.0618 5.625 16.181 5.57561 16.269 5.48771C16.3569 5.3998 16.4062 5.28057 16.4062 5.15625C16.406 4.9077 16.3071 4.66941 16.1313 4.49365C15.9556 4.3179 15.7173 4.21904 15.4688 4.21875V3.75C15.4688 3.62568 15.4194 3.50645 15.3315 3.41854C15.2435 3.33064 15.1243 3.28125 15 3.28125C14.8757 3.28125 14.7565 3.33064 14.6685 3.41854C14.5806 3.50645 14.5312 3.62568 14.5312 3.75V4.21875C14.2827 4.21904 14.0444 4.3179 13.8687 4.49365C13.6929 4.66941 13.594 4.9077 13.5938 5.15625V6.09375C13.594 6.3423 13.6929 6.58059 13.8687 6.75635C14.0444 6.9321 14.2827 7.03096 14.5312 7.03125H15.4688V7.96875H14.5312C14.5312 7.84443 14.4819 7.7252 14.394 7.63729C14.306 7.54939 14.1868 7.5 14.0625 7.5C13.9382 7.5 13.819 7.54939 13.731 7.63729C13.6431 7.7252 13.5938 7.84443 13.5938 7.96875C13.594 8.2173 13.6929 8.45559 13.8687 8.63135C14.0444 8.8071 14.2827 8.90596 14.5312 8.90625V9.375C14.5312 9.49932 14.5806 9.61855 14.6685 9.70646C14.7565 9.79436 14.8757 9.84375 15 9.84375C15.1243 9.84375 15.2435 9.79436 15.3315 9.70646C15.4194 9.61855 15.4688 9.49932 15.4688 9.375Z" fill="#2C90F4"/>
<path d="M25.5292 23.8965L23.5406 21.9078C23.4527 21.8199 23.3335 21.7705 23.2092 21.7705C23.0848 21.7705 22.9656 21.8199 22.8777 21.9078L22.5463 22.2392L20.6597 20.3528C20.0975 19.7901 19.3874 19.3981 18.6117 19.2221L15.4423 18.5018L19.0814 14.8627C19.1469 14.7971 19.1916 14.7136 19.2096 14.6227C19.2277 14.5318 19.2184 14.4375 19.183 14.3519C19.1475 14.2663 19.0874 14.1931 19.0104 14.1415C18.9333 14.09 18.8427 14.0625 18.75 14.0625H17.0156V12.8018C18.5037 12.3215 19.7714 11.3257 20.5904 9.99368C21.4094 8.66164 21.7258 7.08095 21.4827 5.5363C21.2396 3.99165 20.453 2.58456 19.2645 1.56845C18.0759 0.55235 16.5637 -0.00598145 15 -0.00598145C13.4363 -0.00598145 11.9241 0.55235 10.7355 1.56845C9.54701 2.58456 8.76037 3.99165 8.51728 5.5363C8.27419 7.08095 8.59063 8.66164 9.40962 9.99368C10.2286 11.3257 11.4963 12.3215 12.9844 12.8018V14.0625H11.25C11.1573 14.0625 11.0667 14.09 10.9896 14.1415C10.9126 14.1931 10.8525 14.2663 10.817 14.3519C10.7815 14.4375 10.7723 14.5318 10.7903 14.6227C10.8084 14.7136 10.8531 14.7971 10.9186 14.8627L14.2975 18.2416L13.2909 18.0129C12.8112 17.9021 12.3072 17.9824 11.8857 18.2367C11.4641 18.491 11.1581 18.8994 11.0324 19.3754C10.9848 19.5557 10.9647 19.7422 10.9727 19.9285C10.9267 19.8893 10.8786 19.8523 10.8359 19.8096L7.13338 16.1071C6.82569 15.7994 6.40837 15.6266 5.97323 15.6266C5.53809 15.6266 5.12076 15.7994 4.81307 16.1071C4.50538 16.4148 4.33252 16.8321 4.33252 17.2673C4.33252 17.7024 4.50538 18.1197 4.81307 18.4274L9.28771 22.902C11.5102 25.1314 14.3675 26.6192 17.4684 27.1615L17.6005 27.185L17.5743 27.2112C17.5307 27.2547 17.4962 27.3064 17.4726 27.3633C17.4491 27.4201 17.437 27.4811 17.437 27.5427C17.437 27.6042 17.4491 27.6652 17.4726 27.7221C17.4962 27.7789 17.5307 27.8306 17.5743 27.8741L19.563 29.8629C19.6509 29.9508 19.7701 30.0001 19.8944 30.0001C20.0188 30.0001 20.138 29.9508 20.2259 29.8629L25.5292 24.5594C25.6171 24.4715 25.6665 24.3523 25.6665 24.228C25.6665 24.1036 25.6171 23.9844 25.5292 23.8965ZM13.4531 15C13.5774 15 13.6967 14.9506 13.7846 14.8627C13.8725 14.7748 13.9219 14.6556 13.9219 14.5313V12.4502C13.9219 12.3466 13.8876 12.2458 13.8243 12.1638C13.7609 12.0817 13.6722 12.0229 13.5719 11.9966C12.2495 11.6496 11.0988 10.8328 10.3349 9.69895C9.57101 8.56513 9.24618 7.19191 9.42116 5.836C9.59614 4.48009 10.2589 3.23431 11.2857 2.33157C12.3124 1.42883 13.6327 0.930917 14.9999 0.930917C16.3671 0.930917 17.6874 1.42883 18.7141 2.33157C19.7409 3.23431 20.4037 4.48009 20.5786 5.836C20.7536 7.19191 20.4288 8.56513 19.6649 9.69895C18.901 10.8328 17.7503 11.6496 16.4279 11.9966C16.3276 12.0229 16.2389 12.0817 16.1756 12.1638C16.1122 12.2458 16.0779 12.3466 16.0779 12.4502V14.5313C16.0779 14.6556 16.1273 14.7748 16.2152 14.8627C16.3031 14.9506 16.4224 15 16.5467 15H17.6183L15 17.6184L12.3816 15H13.4531ZM17.6313 26.2382C14.72 25.7291 12.0373 24.3323 9.95067 22.2392L5.47603 17.7646C5.34512 17.6325 5.27185 17.454 5.27226 17.268C5.27267 17.0821 5.34671 16.9039 5.4782 16.7724C5.60968 16.6409 5.7879 16.5668 5.97384 16.5664C6.15979 16.566 6.33833 16.6393 6.47038 16.7702L10.1729 20.4727C10.6665 20.9617 11.2733 21.3213 11.9392 21.5195L16.8975 22.9159C17.0176 22.9481 17.1456 22.9312 17.2533 22.8691C17.3609 22.8069 17.4395 22.7045 17.4717 22.5844C17.5039 22.4643 17.4871 22.3364 17.4249 22.2287C17.3628 22.121 17.2604 22.0424 17.1403 22.0102L12.6202 20.7991L12.6193 20.8002L12.6196 20.799C12.3755 20.7338 12.1666 20.5754 12.0381 20.3578C11.9095 20.1402 11.8715 19.8808 11.9322 19.6355C11.9929 19.3901 12.1475 19.1785 12.3628 19.0459C12.578 18.9134 12.8366 18.8707 13.083 18.9269L18.4038 20.1363C19.0071 20.2732 19.5594 20.5781 19.9966 21.0157L21.8831 22.9022L18.4097 26.3756L17.6313 26.2382ZM19.8944 28.8684L18.5685 27.5425L23.2089 22.9019L24.5347 24.2278L19.8944 28.8684Z" fill="#2C90F4"/>
</g>
<defs>
<clipPath id="clip0_29_54">
<rect width="30" height="30" fill="white"/>
</clipPath>
</defs>
</svg>
