<svg width="25" height="25" viewBox="0 0 25 25" fill="none" xmlns="http://www.w3.org/2000/svg">
<path d="M8.92871 12.5C9.81181 12.5 10.6751 12.2381 11.4093 11.7475C12.1436 11.2568 12.7159 10.5595 13.0538 9.7436C13.3917 8.92771 13.48 8.02994 13.3077 7.16382C13.1354 6.29771 12.7101 5.50215 12.0856 4.87776C11.4611 4.25337 10.6654 3.8282 9.79928 3.65601C8.93313 3.48382 8.03538 3.57235 7.21955 3.9104C6.40372 4.24846 5.70646 4.82085 5.21595 5.55519C4.72544 6.28954 4.46371 7.15284 4.46387 8.03594C4.46511 9.21964 4.93593 10.3545 5.77301 11.1914C6.61008 12.0283 7.74501 12.499 8.92871 12.5ZM8.92871 5.1336C9.50274 5.1336 10.0639 5.30382 10.5412 5.62273C11.0185 5.94164 11.3905 6.39493 11.6101 6.92526C11.8298 7.45559 11.8873 8.03916 11.7753 8.60216C11.6633 9.16516 11.3869 9.68231 10.981 10.0882C10.5751 10.4941 10.0579 10.7705 9.49493 10.8825C8.93193 10.9945 8.34837 10.937 7.81803 10.7174C7.2877 10.4977 6.83441 10.1257 6.5155 9.6484C6.19659 9.17111 6.02637 8.60997 6.02637 8.03594C6.02699 7.26638 6.33297 6.52852 6.87713 5.98436C7.42129 5.4402 8.15915 5.13422 8.92871 5.1336Z" fill="white"/>
<path d="M18.3594 12.8906C19.0161 12.8906 19.658 12.6959 20.204 12.3311C20.7501 11.9662 21.1756 11.4477 21.4269 10.8409C21.6783 10.2342 21.744 9.56663 21.6159 8.92255C21.4878 8.27848 21.1715 7.68685 20.7072 7.2225C20.2428 6.75814 19.6512 6.44192 19.0071 6.3138C18.3631 6.18569 17.6955 6.25144 17.0887 6.50275C16.482 6.75405 15.9635 7.17962 15.5986 7.72565C15.2338 8.27167 15.0391 8.91362 15.0391 9.57031C15.0401 10.4506 15.3902 11.2945 16.0127 11.917C16.6352 12.5394 17.4791 12.8896 18.3594 12.8906ZM18.3594 7.8125C18.707 7.8125 19.0469 7.9156 19.336 8.10875C19.625 8.3019 19.8503 8.57643 19.9834 8.89763C20.1164 9.21883 20.1512 9.57226 20.0834 9.91325C20.0156 10.2542 19.8482 10.5674 19.6023 10.8133C19.3565 11.0591 19.0433 11.2265 18.7023 11.2944C18.3613 11.3622 18.0079 11.3274 17.6867 11.1943C17.3655 11.0613 17.091 10.836 16.8978 10.5469C16.7047 10.2578 16.6016 9.91798 16.6016 9.57031C16.602 9.10424 16.7873 8.65737 17.1169 8.32781C17.4464 7.99825 17.8933 7.81292 18.3594 7.8125Z" fill="white"/>
<path d="M18.3594 13.8047C17.5711 13.8071 16.7913 13.9681 16.0665 14.2782C15.3417 14.5882 14.6868 15.0409 14.1406 15.6094C12.9502 14.62 11.5025 13.99 9.96714 13.7933C8.43173 13.5965 6.87204 13.8411 5.47057 14.4984C4.06909 15.1557 2.88379 16.1985 2.05334 17.5049C1.2229 18.8112 0.781657 20.3271 0.78125 21.875C0.78125 22.0822 0.86356 22.281 1.01007 22.4275C1.15659 22.574 1.3553 22.6563 1.5625 22.6563H16.2969C16.5041 22.6563 16.7028 22.574 16.8493 22.4275C16.9958 22.281 17.0781 22.0822 17.0781 21.875C17.0768 21.3956 17.0332 20.9171 16.9477 20.4453H23.4375C23.6447 20.4453 23.8434 20.363 23.9899 20.2165C24.1364 20.07 24.2188 19.8713 24.2188 19.6641C24.2171 18.1106 23.5992 16.6212 22.5008 15.5227C21.4023 14.4242 19.9129 13.8064 18.3594 13.8047ZM2.38984 21.0938C2.56568 19.5961 3.25052 18.2042 4.32978 17.151C5.40905 16.0978 6.81726 15.4472 8.3188 15.308C9.82035 15.1689 11.3242 15.5496 12.5786 16.3865C13.833 17.2233 14.762 18.4656 15.2102 19.9055C15.335 20.2922 15.4216 20.6902 15.4687 21.0938H2.38984ZM16.493 18.8828C16.1873 18.103 15.7627 17.3751 15.2344 16.725C15.7774 16.1454 16.4707 15.7279 17.2369 15.5189C18.0032 15.3099 18.8125 15.3177 19.5746 15.5413C20.3367 15.765 21.0218 16.1958 21.5536 16.7858C22.0854 17.3757 22.4431 18.1017 22.5867 18.8828H16.493Z" fill="white"/>
</svg>
