<svg width="30" height="30" viewBox="0 0 30 30" fill="none" xmlns="http://www.w3.org/2000/svg">
<g clip-path="url(#clip0_29_65)">
<path d="M29.6863 11.0281L22.1862 3.52793C21.7677 3.10956 21.0893 3.10969 20.6709 3.52818C20.4701 3.72908 20.3573 4.00142 20.3572 4.2855V7.49983H12.8571C12.2653 7.49983 11.7856 7.97954 11.7856 8.5713C11.7856 9.16306 12.2653 9.64277 12.8571 9.64277H21.4287C22.0205 9.64277 22.5002 9.16306 22.5002 8.5713V6.87191L27.4138 11.7856L22.5002 16.6992V14.9999C22.5002 14.4081 22.0205 13.9284 21.4287 13.9284H9.64275V10.7141C9.64262 10.1223 9.16279 9.64277 8.57109 9.64289C8.28707 9.64296 8.01467 9.75577 7.81378 9.9566L0.313697 17.4567C-0.104606 17.8752 -0.104606 18.5534 0.313697 18.9718L7.81384 26.4719C8.01473 26.6729 8.2872 26.7858 8.57134 26.7859C8.71216 26.7863 8.85172 26.7586 8.98167 26.7044C9.38196 26.5384 9.64287 26.1478 9.64275 25.7144V22.5001H17.1429C17.7346 22.5001 18.2144 22.0204 18.2144 21.4286C18.2144 20.8368 17.7346 20.3571 17.1429 20.3571H8.57134C7.97958 20.3571 7.49988 20.8368 7.49988 21.4286V23.1279L2.58621 18.2142L7.49988 13.3006V14.9999C7.49988 15.5917 7.97958 16.0714 8.57134 16.0714H20.3572V19.2857C20.3573 19.8775 20.8372 20.3571 21.4289 20.3569C21.7129 20.3569 21.9853 20.2441 22.1862 20.0432L29.6863 12.5431C30.1046 12.1246 30.1046 11.4464 29.6863 11.0281Z" fill="#2C90F4"/>
</g>
<defs>
<clipPath id="clip0_29_65">
<rect width="30" height="30" fill="white"/>
</clipPath>
</defs>
</svg>
