<svg width="15" height="15" viewBox="0 0 15 15" fill="none" xmlns="http://www.w3.org/2000/svg">
<path d="M9.8125 7.32313C10.4274 6.84227 10.877 6.18151 11.0984 5.43298C11.3199 4.68445 11.3022 3.88546 11.0479 3.14744C10.7936 2.40941 10.3154 1.76914 9.67981 1.31591C9.04426 0.86268 8.28311 0.61908 7.5025 0.61908C6.72189 0.61908 5.96074 0.86268 5.32519 1.31591C4.68964 1.76914 4.21137 2.40941 3.95707 3.14744C3.70277 3.88546 3.68512 4.68445 3.90658 5.43298C4.12805 6.18151 4.57758 6.84227 5.1925 7.32313C4.03073 7.78539 3.03417 8.58522 2.33142 9.6194C1.62867 10.6536 1.25199 11.8746 1.25 13.125V13.75C1.25 13.9158 1.31585 14.0747 1.43306 14.1919C1.55027 14.3092 1.70924 14.375 1.875 14.375H13.125C13.2908 14.375 13.4497 14.3092 13.5669 14.1919C13.6842 14.0747 13.75 13.9158 13.75 13.75V13.125C13.7484 11.8752 13.3725 10.6546 12.6707 9.62046C11.9688 8.58634 10.9733 7.78617 9.8125 7.32313ZM5 4.375C5 3.88055 5.14662 3.3972 5.42133 2.98608C5.69603 2.57495 6.08648 2.25452 6.54329 2.0653C7.00011 1.87608 7.50277 1.82658 7.98773 1.92304C8.47268 2.0195 8.91814 2.2576 9.26777 2.60724C9.6174 2.95687 9.8555 3.40232 9.95196 3.88728C10.0484 4.37223 9.99892 4.8749 9.8097 5.33171C9.62048 5.78853 9.30005 6.17897 8.88893 6.45368C8.4778 6.72838 7.99445 6.875 7.5 6.875C6.83696 6.875 6.20107 6.61161 5.73223 6.14277C5.26339 5.67393 5 5.03804 5 4.375ZM2.5 13.125C2.5 11.7989 3.02678 10.5271 3.96447 9.58947C4.90215 8.65179 6.17392 8.125 7.5 8.125C8.82608 8.125 10.0979 8.65179 11.0355 9.58947C11.9732 10.5271 12.5 11.7989 12.5 13.125H2.5Z" fill="#2C90F4"/>
</svg>
