<svg width="13" height="13" viewBox="0 0 13 13" fill="none" xmlns="http://www.w3.org/2000/svg">
<g clip-path="url(#clip0_28_2)">
<path d="M11.2382 6.8289H6.17247V1.76318C6.17247 1.55848 6.00871 1.39471 5.804 1.39471C2.60518 1.39471 0.00135803 3.99854 0.00135803 7.19736C0.00135803 10.3962 2.60518 13 5.804 13C9.00283 13 11.6066 10.3962 11.6066 7.19736C11.6066 6.99539 11.4402 6.8289 11.2382 6.8289ZM5.804 12.2631C3.01186 12.2631 0.738289 9.98951 0.738289 7.19736C0.738289 4.52803 2.81261 2.33362 5.43554 2.14529V7.19736C5.43554 7.40206 5.5993 7.56583 5.804 7.56583H10.8561C10.6677 10.1888 8.47333 12.2631 5.804 12.2631Z" fill="#2C90F4"/>
<path d="M12.9986 5.78354C12.9932 4.37518 12.4773 3.01869 11.5466 1.96242C10.4439 0.715096 8.8609 0 7.19598 0C6.99128 0 6.82751 0.163762 6.82751 0.368465V5.80265C6.82751 6.00735 6.99128 6.17111 7.19598 6.17111H12.6302C12.8349 6.17111 12.9986 6.00735 12.9986 5.80265C12.9986 5.79719 12.9986 5.79173 12.9986 5.78354ZM7.56445 5.43691V0.753307C8.88 0.848835 10.1137 1.45748 10.9925 2.45371C11.7295 3.28616 12.1662 4.33424 12.248 5.43691H7.56445Z" fill="#2C90F4"/>
</g>
<defs>
<clipPath id="clip0_28_2">
<rect width="13" height="13" fill="white"/>
</clipPath>
</defs>
</svg>
