<svg width="20" height="20" viewBox="0 0 20 20" fill="none" xmlns="http://www.w3.org/2000/svg">
<path d="M15.9812 1.85315H4.01875C3.47145 1.85315 2.94653 2.07035 2.55924 2.45705C2.17195 2.84376 1.95395 3.36836 1.95312 3.91565V11.7282C1.95472 11.853 2.0039 11.9726 2.09063 12.0625L8.02813 18C8.11633 18.0874 8.23523 18.1367 8.35938 18.1375H15.9844C16.5317 18.1375 17.0566 17.9203 17.4439 17.5336C17.8312 17.1469 18.0492 16.6223 18.05 16.075V3.91565C18.0496 3.64439 17.9958 3.37586 17.8916 3.12541C17.7874 2.87495 17.6349 2.64747 17.4428 2.45595C17.2507 2.26443 17.0227 2.11262 16.772 2.00919C16.5212 1.90576 16.2525 1.85274 15.9812 1.85315ZM7.8875 16.5625L3.55312 12.2125H7.8875V16.5625ZM17.1094 16.1C17.1085 16.3987 16.9893 16.6848 16.7779 16.8957C16.5664 17.1066 16.2799 17.225 15.9812 17.225H8.825V11.7438C8.825 11.6195 8.77561 11.5002 8.68771 11.4123C8.5998 11.3244 8.48057 11.275 8.35625 11.275H2.89062V3.91565C2.89145 3.617 3.01067 3.33086 3.22215 3.11997C3.43362 2.90908 3.72009 2.79065 4.01875 2.79065H15.9812C16.2799 2.79065 16.5664 2.90908 16.7779 3.11997C16.9893 3.33086 17.1085 3.617 17.1094 3.91565V16.1Z" fill="#2C90F4"/>
<g clip-path="url(#clip0_33_1790)">
<path d="M9.98045 7.11902C8.95278 7.11902 8.1167 7.9551 8.1167 8.98277C8.1167 10.0104 8.95278 10.8465 9.98045 10.8465C11.0081 10.8465 11.8442 10.0104 11.8442 8.98277C11.8442 7.9551 11.0081 7.11902 9.98045 7.11902ZM9.98045 10.0618C9.38548 10.0618 8.90143 9.57775 8.90143 8.98277C8.90143 8.3878 9.38548 7.90375 9.98045 7.90375C10.5754 7.90375 11.0595 8.3878 11.0595 8.98277C11.0595 9.57775 10.5754 10.0618 9.98045 10.0618Z" fill="#2C90F4"/>
<path d="M9.98042 4.96094C7.76279 4.96094 5.95862 6.76513 5.95862 8.98274V9.09391C5.95862 10.2155 6.60163 11.5224 7.86984 12.9784C8.7892 14.0339 9.69572 14.7699 9.73383 14.8007L9.98042 15L10.227 14.8008C10.2651 14.7699 11.1717 14.034 12.091 12.9784C13.3592 11.5224 14.0022 10.2155 14.0022 9.09393V8.98276C14.0022 6.76513 12.1981 4.96094 9.98042 4.96094ZM13.2175 9.09393C13.2175 10.9893 10.7753 13.2837 9.98042 13.9802C9.18527 13.2835 6.74335 10.9892 6.74335 9.09393V8.98276C6.74335 7.19784 8.19551 5.74569 9.98042 5.74569C11.7653 5.74569 13.2175 7.19784 13.2175 8.98276V9.09393Z" fill="#2C90F4"/>
</g>
<defs>
<clipPath id="clip0_33_1790">
<rect width="10.0391" height="10.0391" fill="white" transform="translate(4.96094 4.96094)"/>
</clipPath>
</defs>
</svg>
