<svg width="15" height="15" viewBox="0 0 15 15" fill="none" xmlns="http://www.w3.org/2000/svg">
<path d="M11.625 1.07812H3.79688C3 1.07812 2.34375 1.73438 2.34375 2.53125V12.4688C2.34375 13.2656 3 13.9219 3.79688 13.9219H3.84375H11.6719H11.8594C12.3281 13.9219 12.7031 13.5469 12.7031 13.0781V12.8906V11.25V2.10938C12.6562 1.54688 12.1875 1.07812 11.625 1.07812ZM3.79688 13.1719C3.42188 13.1719 3.09375 12.8438 3.09375 12.4688C3.09375 12.1875 3.32812 12 3.60937 12H11.9531V12.8906C11.9531 13.0312 11.8125 13.1719 11.6719 13.1719H3.79688ZM3.5625 11.25C3.375 11.25 3.23438 11.2969 3.04688 11.3438V2.53125C3.04688 2.15625 3.375 1.82813 3.75 1.82813H11.5781C11.7656 1.82813 11.8594 1.96875 11.8594 2.10938V11.25H3.5625Z" fill="black"/>
<path d="M10.5 3H6.23438C5.85938 3 5.57812 3.28125 5.57812 3.65625V4.3125C5.57812 4.6875 5.85938 4.96875 6.23438 4.96875H10.5C10.875 4.96875 11.1562 4.6875 11.1562 4.3125V3.65625C11.1562 3.28125 10.8281 3 10.5 3ZM10.4063 4.21875H6.375V3.75H10.4063V4.21875Z" fill="black"/>
<path d="M5.95312 5.48438H10.7344V6.23438H5.95312V5.48438Z" fill="black"/>
<path d="M7.5 7.125H10.7812V7.875H7.5V7.125Z" fill="black"/>
</svg>
