<svg width="15" height="15" viewBox="0 0 15 15" fill="none" xmlns="http://www.w3.org/2000/svg">
<path d="M6.10463 13.75C3.42775 13.75 1.25 11.5723 1.25 8.89539C1.25 6.21864 3.42775 4.04089 6.10463 4.04089C8.78138 4.04089 10.9591 6.21864 10.9591 8.89539C10.9591 11.5723 8.78138 13.75 6.10463 13.75ZM6.10463 5.85652C4.42888 5.85652 3.0655 7.21977 3.0655 8.89552C3.0655 10.5713 4.42875 11.9346 6.10463 11.9346C7.78025 11.9346 9.14375 10.5714 9.14375 8.89552C9.14363 7.21977 7.78025 5.85652 6.10463 5.85652Z" fill="#2C90F4"/>
<path d="M13.7501 6.10463H11.9346V3.0655H8.89551V1.25H13.7501V6.10463Z" fill="#2C90F4"/>
<path d="M12.1992 1.51489L13.4828 2.79845L9.53657 6.74466L8.25301 5.4611L12.1992 1.51489Z" fill="#2C90F4"/>
</svg>
