<svg width="15" height="15" viewBox="0 0 15 15" fill="none" xmlns="http://www.w3.org/2000/svg">
<path d="M7.50009 3.22437C5.96458 3.22437 4.71533 4.47361 4.71533 6.00912C4.71533 7.54463 5.96458 8.79388 7.50009 8.79388C9.0356 8.79388 10.2848 7.54463 10.2848 6.00912C10.2848 4.47361 9.03562 3.22437 7.50009 3.22437ZM7.50009 7.62136C6.6111 7.62136 5.88785 6.89811 5.88785 6.00912C5.88785 5.12014 6.6111 4.39688 7.50009 4.39688C8.38907 4.39688 9.11232 5.12014 9.11232 6.00912C9.11232 6.89811 8.38907 7.62136 7.50009 7.62136Z" fill="#3E3E3E"/>
<path d="M7.49995 0C4.18645 0 1.49072 2.69575 1.49072 6.00923V6.17534C1.49072 7.85112 2.45148 9.80394 4.34641 11.9794C5.72008 13.5565 7.07456 14.6562 7.13151 14.7023L7.49995 15L7.86839 14.7023C7.92537 14.6563 9.27985 13.5566 10.6535 11.9795C12.5484 9.80394 13.5092 7.85115 13.5092 6.17537V6.00926C13.5092 2.69575 10.8135 0 7.49995 0ZM12.3367 6.17537C12.3367 9.00735 8.68771 12.4355 7.49995 13.4762C6.31188 12.4352 2.66324 9.00715 2.66324 6.17537V6.00926C2.66324 3.3423 4.833 1.17255 7.49995 1.17255C10.1669 1.17255 12.3367 3.3423 12.3367 6.00926V6.17537Z" fill="#3E3E3E"/>
</svg>
