<svg width="15" height="10" viewBox="0 0 15 10" fill="none" xmlns="http://www.w3.org/2000/svg">
<path d="M7.5 0C4.2932 0 1.50018 2.01412 0 5.00006C1.50018 7.98655 4.2932 9.99994 7.5 9.99994C10.7068 9.99994 13.4998 7.98655 15 5.00006C13.4998 2.01431 10.7068 0 7.5 0ZM7.5 8.75006C5.08667 8.75006 2.80763 7.32843 1.42405 5.00006C2.80759 2.67169 5.08667 1.25006 7.5 1.25006C9.91329 1.25006 12.1924 2.67169 13.576 5.00006C12.1924 7.32843 9.91329 8.75006 7.5 8.75006Z" fill="#2C90F4"/>
<path d="M7.5 2.18756C5.94598 2.18756 4.6875 3.44604 4.6875 5.00006C4.6875 6.55349 5.94598 7.81256 7.5 7.81256C9.05325 7.81256 10.3125 6.55349 10.3125 5.00006C10.3125 3.44604 9.05325 2.18756 7.5 2.18756ZM7.5 6.56268C6.63695 6.56268 5.93756 5.86329 5.93756 5.00006C5.93756 4.13701 6.63695 3.43762 7.5 3.43762C8.36305 3.43762 9.06244 4.13701 9.06244 5.00006C9.06244 5.86329 8.36305 6.56268 7.5 6.56268Z" fill="#2C90F4"/>
</svg>
