<svg width="20" height="20" viewBox="0 0 20 20" fill="none" xmlns="http://www.w3.org/2000/svg">
<path d="M9.2302 17.7247C9.17715 17.7247 9.12467 17.7137 9.07607 17.6924C9.02747 17.6712 8.98379 17.6401 8.94778 17.6011L1.3329 9.36399C1.28213 9.30907 1.24848 9.24055 1.23606 9.16681C1.22363 9.09306 1.23298 9.0173 1.26295 8.94878C1.29292 8.88026 1.34221 8.82197 1.40479 8.78104C1.46738 8.7401 1.54054 8.7183 1.61532 8.71829H5.2807C5.33574 8.7183 5.39013 8.73011 5.44021 8.75293C5.49029 8.77575 5.53489 8.80904 5.57101 8.85056L8.11594 11.7784C8.39097 11.1905 8.9234 10.2116 9.8577 9.01872C11.2389 7.25526 13.8081 4.66176 18.2036 2.32052C18.2886 2.27528 18.3874 2.26354 18.4806 2.28762C18.5738 2.31169 18.6546 2.36984 18.707 2.45057C18.7594 2.5313 18.7796 2.62875 18.7637 2.72368C18.7478 2.8186 18.6968 2.9041 18.6209 2.96329C18.6042 2.97641 16.9094 4.31103 14.9589 6.7556C13.1639 9.00522 10.7776 12.6837 9.60343 17.4325C9.58281 17.516 9.53483 17.5901 9.46716 17.6431C9.3995 17.696 9.31603 17.7248 9.23009 17.7248L9.2302 17.7247Z" fill="white"/>
</svg>
