<svg width="30" height="30" viewBox="0 0 30 30" fill="none" xmlns="http://www.w3.org/2000/svg">
<g clip-path="url(#clip0_29_58)">
<path d="M7.99997 0C3.58172 0 0 3.58172 0 7.99997C0 12.4182 3.58172 15.9999 7.99997 15.9999C12.4182 15.9999 15.9999 12.4182 15.9999 7.99997C15.9999 3.58172 12.4183 0 7.99997 0ZM7.89356 7.20019L8.47069 7.34475C9.56147 7.61719 10.3242 8.59378 10.3242 9.71972V9.96778C10.3242 10.9852 9.66234 11.8429 8.74997 12.1568V12.8301C8.74997 13.2442 8.41406 13.5801 7.99997 13.5801C7.58588 13.5801 7.24997 13.2442 7.24997 12.8301V12.1568C6.33759 11.8428 5.67572 10.9852 5.67572 9.96778C5.67572 9.55369 6.01163 9.21778 6.42572 9.21778C6.83981 9.21778 7.17572 9.55369 7.17572 9.96778C7.17572 10.4219 7.54584 10.792 7.99997 10.792C8.45409 10.792 8.82422 10.4219 8.82422 9.96778V9.71972C8.82422 9.28322 8.52928 8.90531 8.10647 8.79975L7.52934 8.65519C6.43856 8.38275 5.67581 7.40616 5.67581 6.28022V6.03216C5.67581 5.01478 6.33769 4.15706 7.25006 3.84309V3.16988C7.25006 2.75578 7.58597 2.41987 8.00006 2.41987C8.41416 2.41987 8.75006 2.75578 8.75006 3.16988V3.84309C9.66244 4.15716 10.3243 5.01478 10.3243 6.03216C10.3243 6.44625 9.98841 6.78216 9.57431 6.78216C9.16022 6.78216 8.82431 6.44625 8.82431 6.03216C8.82431 5.57803 8.45419 5.20791 8.00006 5.20791C7.54594 5.20791 7.17581 5.57803 7.17581 6.03216V6.28022C7.17581 6.71672 7.47075 7.09472 7.89356 7.20019Z" fill="#2C90F4"/>
<path d="M22 14C17.5801 14 14.0001 17.5799 14.0001 21.9999C14.0001 26.42 17.5801 29.9999 22 29.9999C26.42 29.9999 30 26.4199 30 21.9999C30 17.58 26.42 14 22 14ZM23.4001 21.2499C23.8201 21.2499 24.1501 21.5899 24.1501 21.9999C24.1501 22.41 23.8201 22.7499 23.4001 22.7499H19.8401C20.1701 24.1799 21.4701 25.25 23.0001 25.25H24.0001C24.4101 25.25 24.7501 25.5899 24.7501 26C24.7501 26.41 24.4101 26.75 24.0001 26.75H23.0001C20.6301 26.75 18.67 25.01 18.31 22.7499H17.3001C16.8801 22.7499 16.5501 22.4099 16.5501 21.9999C16.5501 21.59 16.8801 21.2499 17.3001 21.2499H18.31C18.67 18.9899 20.6301 17.2499 23.0001 17.2499H24.0001C24.4101 17.2499 24.7501 17.5898 24.7501 17.9999C24.7501 18.41 24.4101 18.7499 24.0001 18.7499H23.0001C21.4701 18.7499 20.17 19.8199 19.8401 21.2499H23.4001Z" fill="#2C90F4"/>
<path d="M25 9.75C24.5859 9.75 24.25 9.4141 24.25 9V6.94725C24.25 5.73534 23.2647 4.74994 22.0527 4.74994H20C19.5859 4.74994 19.25 4.41403 19.25 3.99994C19.25 3.58585 19.5859 3.24994 20 3.24994H22.0527C24.0918 3.24994 25.75 4.9081 25.75 6.94725V9C25.75 9.4141 25.4141 9.75 25 9.75Z" fill="#2C90F4"/>
<path d="M25 10.75C24.8077 10.75 24.6162 10.6768 24.4698 10.5303L22.4698 8.53032C22.1768 8.23735 22.1768 7.7627 22.4698 7.46973C22.7628 7.17676 23.2374 7.17676 23.5304 7.46973L25.0001 8.93945L26.4699 7.46973C26.7628 7.17676 27.2375 7.17676 27.5304 7.46973C27.8234 7.7627 27.8234 8.23735 27.5304 8.53032L25.5305 10.5303C25.384 10.6767 25.1926 10.75 25.0002 10.75H25Z" fill="#2C90F4"/>
<path d="M10 26.75H7.94728C5.90822 26.75 4.24997 25.0918 4.24997 23.0527V20.9999C4.24997 20.5858 4.58588 20.2499 4.99997 20.2499C5.41406 20.2499 5.74997 20.5858 5.74997 20.9999V23.0527C5.74997 24.2646 6.73528 25.25 7.94728 25.25H10C10.4141 25.25 10.75 25.5859 10.75 26C10.75 26.4141 10.4141 26.75 10 26.75Z" fill="#2C90F4"/>
<path d="M7.00004 22.75C6.80766 22.75 6.61623 22.6768 6.46979 22.5303L5.00007 21.0606L3.53035 22.5303C3.23738 22.8233 2.76273 22.8233 2.46976 22.5303C2.17679 22.2373 2.17679 21.7627 2.46976 21.4697L4.46973 19.4697C4.76269 19.1768 5.23735 19.1768 5.53032 19.4697L7.53029 21.4697C7.82326 21.7627 7.82326 22.2373 7.53029 22.5303C7.38385 22.6767 7.19241 22.75 7.00004 22.75Z" fill="#2C90F4"/>
</g>
<defs>
<clipPath id="clip0_29_58">
<rect width="30" height="30" fill="white"/>
</clipPath>
</defs>
</svg>
