<svg width="100" height="100" viewBox="0 0 100 100" fill="none" xmlns="http://www.w3.org/2000/svg">
<path fill-rule="evenodd" clip-rule="evenodd" d="M74.8516 47.3734C72.7328 49.0188 70.0734 50 67.1875 50C60.2891 50 54.6875 44.3984 54.6875 37.5C54.6875 30.6016 60.2891 25 67.1875 25C74.0859 25 79.6875 30.6016 79.6875 37.5C79.6875 40.3859 78.7063 43.0453 77.0609 45.1641L80.4688 48.5719L81.7078 47.3328C82.3172 46.7219 83.3078 46.7219 83.9172 47.3328L93.2922 56.7078C93.9031 57.3172 93.9031 58.3078 93.2922 58.9172L88.6047 63.6047C87.9953 64.2156 87.0047 64.2156 86.3953 63.6047L77.0203 54.2297C76.4094 53.6203 76.4094 52.6297 77.0203 52.0203L78.2594 50.7812L74.8516 47.3734ZM80.3344 53.125L87.5 60.2906L89.9781 57.8125L82.8125 50.6469L80.3344 53.125ZM67.1875 28.125C72.3609 28.125 76.5625 32.3266 76.5625 37.5C76.5625 42.6734 72.3609 46.875 67.1875 46.875C62.0141 46.875 57.8125 42.6734 57.8125 37.5C57.8125 32.3266 62.0141 28.125 67.1875 28.125Z" fill="#AFB2BD"/>
<path fill-rule="evenodd" clip-rule="evenodd" d="M64.0625 18.75C64.0625 19.1644 63.8979 19.5618 63.6049 19.8549C63.3118 20.1479 62.9144 20.3125 62.5 20.3125C62.0856 20.3125 61.6882 20.1479 61.3951 19.8549C61.1021 19.5618 60.9375 19.1644 60.9375 18.75C60.9375 18.3356 61.1021 17.9382 61.3951 17.6451C61.6882 17.3521 62.0856 17.1875 62.5 17.1875C62.9144 17.1875 63.3118 17.3521 63.6049 17.6451C63.8979 17.9382 64.0625 18.3356 64.0625 18.75Z" fill="#AFB2BD"/>
<path fill-rule="evenodd" clip-rule="evenodd" d="M49.9993 20.311H56.2494C57.1116 20.311 57.8118 19.611 57.8118 18.7485C57.8118 17.886 57.1116 17.186 56.2494 17.186H49.9993C49.1369 17.186 48.4369 17.886 48.4369 18.7485C48.4369 19.611 49.1369 20.311 49.9993 20.311Z" fill="#AFB2BD"/>
<path fill-rule="evenodd" clip-rule="evenodd" d="M71.875 70.3125H89.0625C89.925 70.3125 90.625 71.0125 90.625 71.875V79.6875C90.625 84.8656 86.4281 89.0625 81.25 89.0625H31.25C28.7687 89.0625 26.3703 88.0766 24.6156 86.3219C22.8609 84.5672 21.875 82.1875 21.875 79.7063V29.6875H7.8125C6.95 29.6875 6.25 28.9875 6.25 28.125V20.2937C6.25 17.8125 7.23594 15.4328 8.99063 13.6781C10.7453 11.9234 13.125 10.9375 15.6062 10.9375H62.5C64.9859 10.9375 67.3703 11.925 69.1297 13.6828C70.8875 15.4422 71.875 17.8266 71.875 20.3125C71.875 21.175 71.175 21.875 70.3125 21.875C69.45 21.875 68.75 21.175 68.75 20.3125C68.75 18.6547 68.0922 17.0656 66.9187 15.8937C65.7469 14.7203 64.1578 14.0625 62.5 14.0625C58.1656 14.0625 22.6234 14.0625 22.6234 14.0625C24.15 15.7719 25 17.9891 25 20.2937V79.7063C25 81.3594 25.6562 82.9437 26.825 84.1125C27.9937 85.2812 29.5781 85.9375 31.2313 85.9375H31.2687C32.9219 85.9375 34.5063 85.2812 35.675 84.1125C36.8438 82.9437 37.5 81.3594 37.5 79.7063V71.875C37.5 71.0125 38.2 70.3125 39.0625 70.3125H68.75V54.6875C68.75 53.825 69.45 53.125 70.3125 53.125C71.175 53.125 71.875 53.825 71.875 54.6875V70.3125ZM87.5 73.4375H40.625V79.7063C40.625 82.0109 39.775 84.2281 38.2484 85.9375H81.25C84.7016 85.9375 87.5 83.1391 87.5 79.6875V73.4375ZM21.875 26.5625V20.2937C21.875 18.6406 21.2188 17.0563 20.05 15.8875C18.8812 14.7188 17.2969 14.0625 15.6438 14.0625C15.6313 14.0625 15.6187 14.0625 15.6062 14.0625C13.9531 14.0625 12.3688 14.7188 11.2 15.8875C10.0313 17.0563 9.375 18.6406 9.375 20.2937V26.5625H21.875Z" fill="#AFB2BD"/>
<path fill-rule="evenodd" clip-rule="evenodd" d="M39.0633 24.9992C39.0633 24.1364 38.3637 23.436 37.5008 23.436H31.2508C30.3879 23.436 29.6883 24.1364 29.6883 24.9992V65.6239C29.6883 66.4867 30.3879 67.1871 31.2508 67.1871H37.5008C38.3637 67.1871 39.0633 66.4867 39.0633 65.6239V24.9992ZM32.8133 26.5608V64.0607H35.9383V26.5608H32.8133Z" fill="#AFB2BD"/>
<path fill-rule="evenodd" clip-rule="evenodd" d="M51.5633 40.6254C51.5633 39.7625 50.8637 39.0625 50.0008 39.0625H43.7508C42.8879 39.0625 42.1883 39.7625 42.1883 40.6254V65.6253C42.1883 66.4882 42.8879 67.1882 43.7508 67.1882H50.0008C50.8637 67.1882 51.5633 66.4882 51.5633 65.6253V40.6254ZM45.3133 42.1874V64.0623H48.4383V42.1874H45.3133Z" fill="#AFB2BD"/>
<path fill-rule="evenodd" clip-rule="evenodd" d="M64.0633 56.2501C64.0633 55.3872 63.3637 54.6875 62.5008 54.6875H56.2508C55.3879 54.6875 54.6883 55.3872 54.6883 56.2501V65.625C54.6883 66.4878 55.3879 67.1876 56.2508 67.1876H62.5008C63.3637 67.1876 64.0633 66.4878 64.0633 65.625V56.2501ZM57.8133 57.8126V64.0624H60.9383V57.8126H57.8133Z" fill="#AFB2BD"/>
</svg>
