<svg width="20" height="20" viewBox="0 0 20 20" fill="none" xmlns="http://www.w3.org/2000/svg">
<path d="M9.89217 3.44743C9.79747 3.49215 9.7396 3.58421 9.7396 3.68679V4.29968C6.71464 4.43909 4.29468 6.94322 4.29468 9.99973C4.29468 10.4153 4.33942 10.8283 4.42883 11.2229C4.45514 11.3412 4.56299 11.428 4.684 11.428H4.68663C4.81024 11.4254 4.91547 11.3412 4.94177 11.2202C5.43628 8.94495 7.42749 7.26939 9.7396 7.15102V7.75075C9.7396 7.85333 9.79747 7.94804 9.89217 7.99011C9.98686 8.03221 10.0947 8.01642 10.1736 7.95066L12.5304 5.91473C12.5883 5.86477 12.6225 5.79374 12.6225 5.71482C12.6225 5.63855 12.5883 5.56752 12.5304 5.51756L10.1736 3.48688C10.0947 3.42112 9.98421 3.40533 9.89217 3.44743Z" fill="#2C90F4"/>
<path d="M10.1078 12.0095C10.0158 11.9674 9.90531 11.9832 9.82639 12.0516L7.46956 14.0849C7.4117 14.1349 7.38014 14.2085 7.38014 14.2848C7.38014 14.3611 7.4117 14.4347 7.46956 14.4847L9.82904 16.5127C9.87638 16.5548 9.93686 16.5759 9.99999 16.5759C10.0368 16.5759 10.0736 16.568 10.1078 16.5522C10.2026 16.5101 10.263 16.4154 10.263 16.3128V15.7C13.288 15.5632 15.7053 13.059 15.7053 9.9999C15.7053 9.58429 15.6606 9.17395 15.5738 8.7794C15.5449 8.65841 15.4396 8.57422 15.316 8.57422C15.1924 8.57422 15.0845 8.66103 15.0582 8.78202C14.5664 11.0573 12.5725 12.7302 10.263 12.8486V12.2489C10.263 12.1463 10.2026 12.0542 10.1078 12.0095Z" fill="#2C90F4"/>
</svg>
