<svg width="13" height="15" viewBox="0 0 13 15" fill="none" xmlns="http://www.w3.org/2000/svg">
<path d="M8.59764 7.92507L7.09082 8.83507L9.98923 14.103L10.914 12.1383L12.9999 12.2801L10.1015 7.01212L8.59764 7.92507Z" fill="#C03A45"/>
<path d="M4.40227 7.92507L5.90909 8.83507L3.01068 14.103L2.08591 12.1383L0 12.2801L2.89841 7.01212L4.40227 7.92507Z" fill="#C03A45"/>
<path d="M6.49982 10.6364C9.43697 10.6364 11.818 8.25533 11.818 5.31818C11.818 2.38103 9.43697 0 6.49982 0C3.56267 0 1.18164 2.38103 1.18164 5.31818C1.18164 8.25533 3.56267 10.6364 6.49982 10.6364Z" fill="#FCEE21"/>
<path d="M6.50013 9.45455C8.78458 9.45455 10.6365 7.60264 10.6365 5.31819C10.6365 3.03374 8.78458 1.18182 6.50013 1.18182C4.21568 1.18182 2.36377 3.03374 2.36377 5.31819C2.36377 7.60264 4.21568 9.45455 6.50013 9.45455Z" fill="#FBB03B"/>
<path d="M6.49991 2.36365L7.32127 4.11569L9.159 4.39637L7.82946 5.75842L8.14264 7.68183L6.49991 6.77478L4.85718 7.68183L5.17037 5.75842L3.84082 4.39637L5.67855 4.11569L6.49991 2.36365Z" fill="#FCEE21"/>
</svg>
