<svg width="18" height="12" viewBox="0 0 18 12" fill="none" xmlns="http://www.w3.org/2000/svg">
<path d="M17.6896 11.7931H0.310359C0.138972 11.7931 0 11.6541 0 11.4827V0.310359C0 0.138972 0.138972 0 0.310359 0H17.6896C17.861 0 18 0.138972 18 0.310359V11.4827C18 11.6542 17.861 11.7931 17.6896 11.7931Z" fill="#FF4B55"/>
<path d="M0.310359 0H8.68966C8.86105 0 9.00002 0.138972 9.00002 0.310359V5.58621C9.00002 5.7576 8.86105 5.89657 8.68966 5.89657H0.310359C0.138972 5.89654 0 5.75756 0 5.58618V0.310323C0 0.138937 0.138972 0 0.310359 0Z" fill="#41479B"/>
<path d="M3.38914 2.94837C3.38914 2.64174 3.51338 2.36414 3.71426 2.16316L2.78354 1.89692C2.7295 1.88149 2.6908 1.94856 2.73115 1.98762L3.42763 2.66104L2.48777 2.89602C2.43328 2.90963 2.43328 2.98711 2.48777 3.00075L3.42763 3.23574L2.73115 3.90915C2.69076 3.94821 2.7295 4.01529 2.78354 3.99986L3.71426 3.73362C3.51338 3.5326 3.38914 3.255 3.38914 2.94837Z" fill="#F5F5F5"/>
<path d="M3.71471 2.16266C3.91569 1.96178 4.19329 1.83754 4.49992 1.83754C4.80655 1.83754 5.08414 1.96178 5.28513 2.16266L5.55137 1.23194C5.5668 1.1779 5.49973 1.13919 5.46067 1.17955L4.78725 1.876L4.55227 0.936133C4.53866 0.881641 4.46118 0.881641 4.44754 0.936133L4.21255 1.876L3.53914 1.17955C3.50008 1.13916 3.433 1.1779 3.44843 1.23194L3.71471 2.16266Z" fill="#F5F5F5"/>
<path d="M5.2851 3.73413C5.08411 3.93501 4.80652 4.05925 4.49988 4.05925C4.19325 4.05925 3.91566 3.93501 3.71467 3.73413L3.44843 4.66486C3.433 4.71889 3.50008 4.7576 3.53914 4.71724L4.21255 4.02079L4.44754 4.96066C4.46114 5.01515 4.53863 5.01515 4.55227 4.96066L4.78725 4.02079L5.46067 4.71724C5.49972 4.75763 5.5668 4.71889 5.55137 4.66486L5.2851 3.73413Z" fill="#F5F5F5"/>
<path d="M6.51211 2.89602L5.57225 2.66104L6.26869 1.98762C6.30909 1.94856 6.27034 1.88149 6.21631 1.89692L5.28558 2.16316C5.48647 2.36414 5.61071 2.64174 5.61071 2.94837C5.61071 3.255 5.48647 3.5326 5.28558 3.73358L6.21631 3.99982C6.27034 4.01525 6.30905 3.94818 6.26869 3.90912L5.57225 3.2357L6.51211 3.00072C6.56664 2.98715 6.56664 2.9097 6.51211 2.89602Z" fill="#F5F5F5"/>
<path d="M4.49989 3.8329C4.9884 3.8329 5.38442 3.43688 5.38442 2.94837C5.38442 2.45986 4.9884 2.06384 4.49989 2.06384C4.01137 2.06384 3.61536 2.45986 3.61536 2.94837C3.61536 3.43688 4.01137 3.8329 4.49989 3.8329Z" fill="#F5F5F5"/>
</svg>
