<svg width="15" height="15" viewBox="0 0 15 15" fill="none" xmlns="http://www.w3.org/2000/svg">
<path d="M13.125 6.875H4.375C4 6.875 3.75 6.625 3.75 6.25C3.75 5.875 4 5.625 4.375 5.625H11.625L10.1875 4.1875C9.9375 3.9375 9.9375 3.5625 10.1875 3.3125C10.4375 3.0625 10.8125 3.0625 11.0625 3.3125L13.5625 5.8125C13.75 6 13.8125 6.25 13.6875 6.5C13.625 6.75 13.375 6.875 13.125 6.875Z" fill="#2C90F4"/>
<path d="M4.375 11.875C4.1875 11.875 4.0625 11.8125 3.9375 11.6875L1.4375 9.1875C1.25 9 1.1875 8.75 1.3125 8.5C1.4375 8.25 1.625 8.125 1.875 8.125H10.625C11 8.125 11.25 8.375 11.25 8.75C11.25 9.125 11 9.375 10.625 9.375H3.375L4.8125 10.8125C5.0625 11.0625 5.0625 11.4375 4.8125 11.6875C4.6875 11.8125 4.5625 11.875 4.375 11.875Z" fill="#2C90F4"/>
</svg>
