<svg width="20" height="20" viewBox="0 0 20 20" fill="none" xmlns="http://www.w3.org/2000/svg">
<g clip-path="url(#clip0_23_12)">
<path d="M18.0292 3.54153C17.9214 2.15029 16.7557 1.05103 15.3374 1.05103H2.70086C1.2116 1.05103 0 2.26263 0 3.75188V16.2481C0 17.7374 1.2116 18.949 2.70086 18.949H17.2992C18.7884 18.949 20 17.7374 20 16.2481V6.1413C20 4.90505 19.1648 3.8609 18.0292 3.54153ZM2.70086 2.31274H15.3374C16.024 2.31274 16.5994 2.79618 16.7422 3.44048H2.70086C2.17208 3.44048 1.67871 3.59382 1.26172 3.85751V3.75188C1.26172 2.95834 1.90732 2.31274 2.70086 2.31274ZM17.2991 17.6873H2.70086C1.90732 17.6873 1.26172 17.0417 1.26172 16.2481V6.1413C1.26172 5.34776 1.90732 4.70215 2.70086 4.70215H17.2992C18.0927 4.70215 18.7383 5.34776 18.7383 6.1413V8.34291H14.7156C13.1215 8.34291 11.8246 9.63984 11.8246 11.2339C11.8246 12.828 13.1215 14.125 14.7156 14.125H18.7383V16.2481C18.7383 17.0417 18.0927 17.6873 17.2991 17.6873ZM18.7383 12.8632H14.7156C13.8172 12.8632 13.0863 12.1324 13.0863 11.2339C13.0863 10.3355 13.8172 9.60463 14.7156 9.60463H18.7383V12.8632Z" fill="#3E3E3E"/>
<path d="M14.9498 11.9386C15.3125 11.9386 15.6066 11.6445 15.6066 11.2818C15.6066 10.9191 15.3125 10.625 14.9498 10.625C14.587 10.625 14.293 10.9191 14.293 11.2818C14.293 11.6445 14.587 11.9386 14.9498 11.9386Z" fill="#3E3E3E"/>
</g>
<defs>
<clipPath id="clip0_23_12">
<rect width="20" height="20" fill="white"/>
</clipPath>
</defs>
</svg>
