<svg width="20" height="20" viewBox="0 0 20 20" fill="none" xmlns="http://www.w3.org/2000/svg">
<g clip-path="url(#clip0_27_6086)">
<path d="M10.0001 0.555664C6.87789 0.555664 3.95566 2.10011 2.19455 4.689C1.12233 6.25566 0.555664 8.09455 0.555664 10.0001C0.555664 11.9057 1.12233 13.7446 2.19455 15.3112C3.95566 17.9001 6.87789 19.4446 10.0001 19.4446C13.1223 19.4446 16.0446 17.9001 17.8057 15.3112C18.8779 13.7446 19.4446 11.9057 19.4446 10.0001C19.4446 8.09455 18.8779 6.25566 17.8057 4.689C16.0446 2.10011 13.1279 0.555664 10.0001 0.555664ZM16.2112 4.44455H13.739C13.4168 3.50011 13.0112 2.70011 12.5446 2.07233C13.9557 2.52789 15.2223 3.34455 16.2112 4.44455ZM6.539 9.44455C6.57789 8.06678 6.77233 6.73344 7.09455 5.55566H12.9001C13.2223 6.73344 13.4168 8.06678 13.4557 9.44455H6.539ZM13.4612 10.5557C13.4223 11.9334 13.2279 13.2668 12.9057 14.4446H7.09455C6.77233 13.2668 6.57789 11.9334 6.539 10.5557H13.4612ZM10.0001 1.66678C10.9279 1.66678 11.8668 2.69455 12.539 4.44455H7.46122C8.13344 2.69455 9.07233 1.66678 10.0001 1.66678ZM7.45566 2.07233C6.989 2.70011 6.58344 3.50011 6.26122 4.44455H3.789C4.77789 3.34455 6.04455 2.52789 7.45566 2.07233ZM2.95011 5.55566H5.93344C5.63344 6.74455 5.46122 8.07789 5.42789 9.44455H1.68344C1.77789 8.06122 2.21122 6.72789 2.95011 5.55566ZM2.95011 14.4446C2.21122 13.2723 1.77233 11.939 1.68344 10.5557H5.42789C5.46678 11.9223 5.639 13.2557 5.93344 14.4446H2.95011ZM3.789 15.5557H6.26122C6.58344 16.5001 6.989 17.3001 7.45566 17.9279C6.04455 17.4723 4.77789 16.6557 3.789 15.5557ZM10.0001 18.3334C9.07233 18.3334 8.13344 17.3057 7.46122 15.5557H12.539C11.8668 17.3057 10.9279 18.3334 10.0001 18.3334ZM12.5446 17.9279C13.0112 17.3057 13.4168 16.5001 13.739 15.5557H16.2112C15.2223 16.6557 13.9557 17.4723 12.5446 17.9279ZM17.0501 14.4446H14.0668C14.3668 13.2557 14.539 11.9223 14.5723 10.5557H18.3168C18.2223 11.939 17.789 13.2723 17.0501 14.4446ZM14.5723 9.44455C14.5334 8.07789 14.3612 6.74455 14.0668 5.55566H17.0501C17.789 6.72789 18.2279 8.06122 18.3168 9.44455H14.5723Z" fill="#AFB2BD"/>
</g>
<defs>
<clipPath id="clip0_27_6086">
<rect width="20" height="20" fill="white"/>
</clipPath>
</defs>
</svg>
