<svg width="15" height="14" viewBox="0 0 15 14" fill="none" xmlns="http://www.w3.org/2000/svg">
<path d="M3.5 14C3.4265 14 3.3525 13.9835 3.283 13.9505C3.1105 13.867 3 13.6925 3 13.5V11H1.5C0.673 11 0 10.327 0 9.5V1.5C0 0.673 0.673 0 1.5 0H13.5C14.327 0 15 0.673 15 1.5V9.5C15 10.327 14.327 11 13.5 11H7.4255L3.8125 13.8905C3.722 13.963 3.6115 14 3.5 14ZM1.5 1C1.224 1 1 1.2245 1 1.5V9.5C1 9.7755 1.224 10 1.5 10H3.5C3.7765 10 4 10.2235 4 10.5V12.46L6.9375 10.1095C7.0265 10.0385 7.136 10 7.25 10H13.5C13.776 10 14 9.7755 14 9.5V1.5C14 1.2245 13.776 1 13.5 1H1.5Z" fill="#3E3E3E"/>
<path d="M11.5 5H3.5C3.2235 5 3 4.776 3 4.5C3 4.224 3.2235 4 3.5 4H11.5C11.7765 4 12 4.224 12 4.5C12 4.776 11.7765 5 11.5 5Z" fill="#3E3E3E"/>
<path d="M7.5 7.00024H3.5C3.2235 7.00024 3 6.77624 3 6.50024C3 6.22424 3.2235 6.00024 3.5 6.00024H7.5C7.7765 6.00024 8 6.22424 8 6.50024C8 6.77624 7.7765 7.00024 7.5 7.00024Z" fill="#3E3E3E"/>
</svg>
