<svg width="30" height="30" viewBox="0 0 30 30" fill="none" xmlns="http://www.w3.org/2000/svg">
<g clip-path="url(#clip0_29_46)">
<path d="M27.0749 20.0273C27.021 20.0379 27.425 19.9154 19.923 22.252C20.2529 20.7845 19.136 19.3945 17.6367 19.3945H11.9197C11.6065 19.3945 11.3121 19.2725 11.0907 19.0511L9.19107 17.1514C8.74828 16.7086 8.15953 16.4648 7.53334 16.4648H6.50391V15.2929C6.50391 14.9693 6.24158 14.707 5.91797 14.707H0.644531C0.320918 14.707 0.0585938 14.9693 0.0585938 15.2929V28.1835C0.0585938 28.5071 0.320918 28.7695 0.644531 28.7695H5.91797C6.24158 28.7695 6.50391 28.5071 6.50391 28.1835V27.0117H7.56697L15.0826 29.9023C15.2223 29.9559 15.3769 29.9542 15.5153 29.8975L28.3222 24.6462C29.2916 24.3135 29.9414 23.4049 29.9414 22.3786C29.9414 20.8755 28.5701 19.7312 27.0749 20.0273ZM5.33203 27.5976H1.23047V15.8788H5.33203V27.5976ZM27.9313 23.5414C27.8969 23.5528 28.4892 23.3117 15.2861 28.7249L7.88613 25.8788C7.81898 25.853 7.74773 25.8397 7.67578 25.8397H6.50391V17.6366H7.5334C7.84658 17.6366 8.14102 17.7586 8.36244 17.98L10.2621 19.8796C10.7048 20.3224 11.2935 20.5663 11.9197 20.5663H17.6367C18.2839 20.5663 18.8086 21.091 18.8086 21.7382C18.8086 22.2311 18.4972 22.6743 18.0338 22.8409V22.841C18.0337 22.841 18.0336 22.8411 18.0335 22.8411C17.8986 22.8875 17.7686 22.91 17.6367 22.91H11.1914C10.8678 22.91 10.6055 23.1724 10.6055 23.496C10.6055 23.8196 10.8678 24.0819 11.1914 24.0819H17.6367C17.9062 24.0819 18.1648 24.0357 18.4056 23.9518C31.4246 19.8962 25.9436 21.6036 27.3304 21.1716C28.0954 21.0369 28.7695 21.6275 28.7695 22.3786C28.7695 22.9068 28.4327 23.3741 27.9313 23.5414Z" fill="#2C90F4"/>
<path d="M3.57422 24.082C3.25061 24.082 2.98828 24.3443 2.98828 24.6679V25.8398C2.98828 26.1634 3.25061 26.4257 3.57422 26.4257C3.89783 26.4257 4.16016 26.1634 4.16016 25.8398V24.6679C4.16016 24.3443 3.89783 24.082 3.57422 24.082Z" fill="#2C90F4"/>
<path d="M18.2227 13.5351H17.0508C16.7272 13.5351 16.4648 13.7974 16.4648 14.121C16.4648 14.4446 16.7272 14.707 17.0508 14.707H17.6367V15.2929C17.6367 15.6165 17.899 15.8788 18.2227 15.8788C18.5463 15.8788 18.8086 15.6165 18.8086 15.2929V14.6071C19.0529 14.5209 19.2768 14.3806 19.4655 14.192C20.1528 13.5046 20.1525 12.3935 19.4655 11.7063C19.1334 11.3742 18.692 11.1913 18.2227 11.1913C17.8991 11.1913 17.6367 10.9289 17.6367 10.6054C17.6367 10.2823 17.8996 10.0195 18.2227 10.0195H19.3945C19.7181 10.0195 19.9805 9.75715 19.9805 9.43353C19.9805 9.10992 19.7181 8.8476 19.3945 8.8476H18.8086V8.26166C18.8086 7.93804 18.5463 7.67572 18.2227 7.67572C17.899 7.67572 17.6367 7.93804 17.6367 8.26166V8.94838C16.9547 9.19025 16.4648 9.84152 16.4648 10.6054C16.4648 11.5766 17.2514 12.3632 18.2227 12.3632C18.5462 12.3632 18.8086 12.6257 18.8086 12.9492C18.8086 13.2727 18.5462 13.5351 18.2227 13.5351Z" fill="#2C90F4"/>
<path d="M8.2617 5.03901H9.43358V11.7773C9.43358 12.1009 9.6959 12.3632 10.0195 12.3632H11.8042C12.1013 15.6436 14.8662 18.2226 18.2226 18.2226C21.5791 18.2226 24.344 15.6436 24.6411 12.3632H26.4258C26.7494 12.3632 27.0117 12.1009 27.0117 11.7773V5.03901H28.1836C28.4068 5.03901 28.6107 4.91215 28.7092 4.71194C28.8078 4.51166 28.7841 4.27278 28.648 4.09583L25.7183 0.287231C25.4839 -0.0174561 25.0238 -0.0174561 24.7894 0.287231L21.8597 4.09583C21.7236 4.27278 21.6999 4.51166 21.7985 4.71194C21.8971 4.91221 22.101 5.03901 22.3241 5.03901H23.496V8.07581C22.3286 6.4176 20.4001 5.33198 18.2226 5.33198C16.0451 5.33198 14.1165 6.4176 12.9491 8.07581V5.03901H14.121C14.3443 5.03901 14.5481 4.91215 14.6467 4.71194C14.7453 4.51166 14.7215 4.27278 14.5854 4.09583L11.6557 0.287231C11.4214 -0.0174561 10.9612 -0.0174561 10.7269 0.287231L7.79717 4.09583C7.66106 4.27278 7.63733 4.51166 7.73594 4.71194C7.83461 4.91215 8.03846 5.03901 8.2617 5.03901ZM25.2539 1.60547L26.9936 3.86713H26.4258C26.1022 3.86713 25.8398 4.12946 25.8398 4.45307V11.1914H24.668V4.45307C24.668 4.12946 24.4056 3.86713 24.082 3.86713H23.5142L25.2539 1.60547ZM18.2226 6.50385C21.1304 6.50385 23.4961 8.86952 23.4961 11.7773C23.4961 14.6851 21.1304 17.0507 18.2226 17.0507C15.3149 17.0507 12.9492 14.6851 12.9492 11.7773C12.9492 8.86952 15.3149 6.50385 18.2226 6.50385ZM11.1914 1.60547L12.9311 3.86713H12.3633C12.0397 3.86713 11.7773 4.12946 11.7773 4.45307V11.1914H10.6055V4.45307C10.6055 4.12946 10.3431 3.86713 10.0195 3.86713H9.45168L11.1914 1.60547Z" fill="#2C90F4"/>
</g>
<defs>
<clipPath id="clip0_29_46">
<rect width="30" height="30" fill="white"/>
</clipPath>
</defs>
</svg>
