<svg width="12" height="12" viewBox="0 0 12 12" fill="none" xmlns="http://www.w3.org/2000/svg">
<g clip-path="url(#clip0_27_6479)">
<path d="M9.59027 4.26599C9.59258 4.11476 9.56506 3.96455 9.5093 3.82395C9.45353 3.68335 9.37061 3.55512 9.26527 3.44658L7.24266 1.37211C7.13402 1.26256 7.00476 1.1756 6.86234 1.11626C6.71992 1.05692 6.56716 1.02637 6.41288 1.02637H3.14213C2.83495 1.02637 2.54034 1.1484 2.32313 1.36561C2.10592 1.58282 1.98389 1.87743 1.98389 2.18461V10.2405C1.98389 10.5476 2.10592 10.8423 2.32313 11.0595C2.54034 11.2767 2.83495 11.3987 3.14213 11.3987H8.43202C8.58413 11.3987 8.73474 11.3687 8.87527 11.3105C9.01579 11.2523 9.14347 11.167 9.25103 11.0595C9.35858 10.9519 9.4439 10.8242 9.5021 10.6837C9.56031 10.5432 9.59027 10.3926 9.59027 10.2405V4.26599ZM8.43548 3.60216H7.36713C7.33154 3.60518 7.29571 3.60092 7.26183 3.58962C7.22794 3.57833 7.19672 3.56024 7.17006 3.53647C7.12141 3.48789 7.09405 3.42198 7.09399 3.35323V2.2261L8.43548 3.60216ZM8.43548 10.7072H3.14213C3.08071 10.7077 3.01981 10.6959 2.96297 10.6726C2.90613 10.6493 2.85449 10.615 2.81106 10.5715C2.76763 10.5281 2.73326 10.4765 2.70997 10.4196C2.68667 10.3628 2.67492 10.3019 2.67538 10.2405V2.18461C2.67492 2.12319 2.68667 2.06229 2.70997 2.00545C2.73326 1.94861 2.76763 1.89697 2.81106 1.85354C2.85449 1.81011 2.90613 1.77574 2.96297 1.75245C3.01981 1.72916 3.08071 1.7174 3.14213 1.71786H6.40942V3.35323C6.40942 3.47838 6.43412 3.6023 6.48212 3.71788C6.53012 3.83347 6.60047 3.93843 6.68912 4.02677C6.77778 4.1151 6.883 4.18507 6.99876 4.23265C7.11451 4.28022 7.23852 4.30448 7.36367 4.30403L8.89878 4.28674V10.2405C8.89924 10.3019 8.88748 10.3628 8.86419 10.4196C8.84089 10.4765 8.80653 10.5281 8.7631 10.5715C8.71966 10.615 8.66802 10.6493 8.61119 10.6726C8.55435 10.6959 8.49345 10.7077 8.43202 10.7072H8.43548Z" fill="#2C90F4"/>
<path d="M7.1703 5.2583H4.40434C4.31264 5.2583 4.2247 5.29473 4.15986 5.35957C4.09502 5.42441 4.05859 5.51235 4.05859 5.60405C4.05859 5.69574 4.09502 5.78368 4.15986 5.84852C4.2247 5.91336 4.31264 5.94979 4.40434 5.94979H7.1703C7.26199 5.94979 7.34993 5.91336 7.41477 5.84852C7.47961 5.78368 7.51604 5.69574 7.51604 5.60405C7.51604 5.51235 7.47961 5.42441 7.41477 5.35957C7.34993 5.29473 7.26199 5.2583 7.1703 5.2583Z" fill="#2C90F4"/>
<path d="M7.1703 7.51611H4.40434C4.31264 7.51611 4.2247 7.55254 4.15986 7.61738C4.09502 7.68222 4.05859 7.77016 4.05859 7.86186C4.05859 7.95356 4.09502 8.0415 4.15986 8.10634C4.2247 8.17118 4.31264 8.2076 4.40434 8.2076H7.1703C7.26199 8.2076 7.34993 8.17118 7.41477 8.10634C7.47961 8.0415 7.51604 7.95356 7.51604 7.86186C7.51604 7.77016 7.47961 7.68222 7.41477 7.61738C7.34993 7.55254 7.26199 7.51611 7.1703 7.51611Z" fill="#2C90F4"/>
</g>
<defs>
<clipPath id="clip0_27_6479">
<rect width="11.0638" height="11.0638" fill="white" transform="translate(0.255371 0.680664)"/>
</clipPath>
</defs>
</svg>
