<svg width="12" height="12" viewBox="0 0 12 12" fill="none" xmlns="http://www.w3.org/2000/svg">
<g clip-path="url(#clip0_26_366)">
<path d="M4.62098 10.8277C4.52903 10.8277 4.43707 10.7817 4.3911 10.7817C4.25317 10.6897 4.16121 10.5058 4.16121 10.3679V5.95409L0.620982 1.95409C0.437074 1.77019 0.483051 1.49432 0.666959 1.31042C0.712936 1.21846 0.850867 1.17249 0.942821 1.17249H11.0578C11.3336 1.17249 11.5175 1.35639 11.5175 1.63226C11.5175 1.72421 11.4716 1.86214 11.4256 1.95409L7.83937 5.95409V8.98858C7.83937 9.17249 7.74742 9.31042 7.56351 9.40237L4.80489 10.7817C4.75891 10.8277 4.71294 10.8277 4.62098 10.8277ZM1.95432 2.09203L4.94282 5.44835C5.03478 5.5403 5.08075 5.67823 5.08075 5.77019V9.63226L6.91983 8.71272V5.77019C6.91983 5.67823 6.96581 5.5403 7.05776 5.44835L10.0463 2.09203H1.95432Z" fill="#2C90F4"/>
</g>
<defs>
<clipPath id="clip0_26_366">
<rect width="11.0345" height="11.0345" fill="white" transform="translate(0.48291 0.482788)"/>
</clipPath>
</defs>
</svg>
