<svg width="15" height="15" viewBox="0 0 15 15" fill="none" xmlns="http://www.w3.org/2000/svg">
<path d="M12.5005 5.51069H9.62216L10.2725 2.5815C10.3525 2.21992 10.3267 1.84296 10.1981 1.49566C10.0696 1.14835 9.8438 0.845401 9.5477 0.622999L9.09986 0.287118C8.93829 0.16544 8.7527 0.0794965 8.5554 0.0349853C8.3581 -0.00952578 8.15358 -0.0115879 7.95542 0.0289359C7.75726 0.0694597 7.56998 0.151644 7.40599 0.270039C7.242 0.388434 7.10505 0.540336 7.00422 0.715674C6.11896 2.3269 5.11026 3.86717 3.98718 5.32266C3.94399 5.2312 3.8758 5.15383 3.79048 5.09951C3.70516 5.04519 3.6062 5.01613 3.50506 5.0157H0.535696C0.39362 5.0157 0.257364 5.07214 0.156902 5.1726C0.0564392 5.27307 0 5.40932 0 5.5514V13.9693C0 14.1114 0.0564392 14.2477 0.156902 14.3481C0.257364 14.4486 0.39362 14.505 0.535696 14.505H3.50666C3.63486 14.5041 3.75837 14.4566 3.85424 14.3715C3.9501 14.2864 4.01181 14.1694 4.0279 14.0422C4.30494 14.343 4.64112 14.5833 5.01538 14.7481C5.38963 14.9129 5.79388 14.9987 6.20282 15H9.14379C9.63063 15.0005 10.11 14.8806 10.5393 14.6508C10.9685 14.4211 11.3342 14.0887 11.6037 13.6833L14.5275 9.29752C14.7719 8.93062 14.9121 8.5043 14.9333 8.06399C14.9544 7.62368 14.8557 7.18588 14.6477 6.79724C14.4397 6.40859 14.1301 6.08368 13.7519 5.85711C13.3738 5.63054 12.9413 5.51082 12.5005 5.51069ZM2.97097 13.4336H1.07139V6.08656H2.97097V13.4336ZM13.6361 8.70397L10.7123 13.0892C10.5404 13.3476 10.3072 13.5595 10.0335 13.7059C9.75983 13.8524 9.45418 13.9289 9.14379 13.9286H6.20282C5.9102 13.9279 5.62171 13.8595 5.35998 13.7286C5.09825 13.5978 4.8704 13.408 4.6943 13.1743L4.04236 12.3054V6.80385C5.16143 5.85942 6.75459 3.30362 7.93312 1.24923C7.95789 1.20548 7.99183 1.16761 8.0326 1.13821C8.07338 1.1088 8.12003 1.08857 8.16936 1.07888C8.2192 1.06843 8.27071 1.06877 8.32041 1.07985C8.37012 1.09094 8.41688 1.11252 8.45756 1.14316L8.90487 1.47904C9.03625 1.57794 9.13642 1.71254 9.19341 1.8668C9.2504 2.02105 9.26181 2.18845 9.22628 2.34901L8.43238 5.93014C8.41498 6.00844 8.41538 6.08965 8.43356 6.16778C8.45173 6.24591 8.48723 6.31895 8.53741 6.38153C8.58759 6.44411 8.65119 6.49461 8.72351 6.52932C8.79582 6.56404 8.87501 6.58206 8.95522 6.58208H12.5021C12.749 6.58229 12.9913 6.64946 13.2031 6.77645C13.4149 6.90344 13.5883 7.08549 13.7048 7.30322C13.8213 7.52094 13.8766 7.76619 13.8648 8.01286C13.853 8.25952 13.7745 8.49837 13.6377 8.70397H13.6361Z" fill="#3E3E3E"/>
</svg>
