<svg width="13" height="13" viewBox="0 0 13 13" fill="none" xmlns="http://www.w3.org/2000/svg">
<path d="M2.84376 5.28126H10.1563C10.2366 5.28125 10.3151 5.25741 10.3819 5.21277C10.4487 5.16813 10.5008 5.10469 10.5315 5.03047C10.5622 4.95625 10.5703 4.87458 10.5546 4.79578C10.5389 4.71699 10.5003 4.64461 10.4435 4.5878L6.78722 0.931546C6.74952 0.893806 6.70474 0.863867 6.65546 0.84344C6.60618 0.823014 6.55335 0.8125 6.50001 0.8125C6.44666 0.8125 6.39383 0.823014 6.34455 0.84344C6.29527 0.863867 6.25049 0.893806 6.21279 0.931546L2.55654 4.5878C2.49974 4.64461 2.46106 4.71699 2.44539 4.79578C2.42972 4.87458 2.43777 4.95625 2.46851 5.03047C2.49925 5.10469 2.55131 5.16813 2.6181 5.21277C2.68489 5.25741 2.76342 5.28125 2.84376 5.28126Z" fill="#AFB2BD"/>
<path d="M10.1563 7.71875H2.84376C2.76342 7.71877 2.68489 7.7426 2.6181 7.78724C2.55131 7.83188 2.49925 7.89532 2.46851 7.96955C2.43777 8.04377 2.42972 8.12544 2.44539 8.20423C2.46106 8.28303 2.49974 8.3554 2.55654 8.41222L6.21279 12.0685C6.2505 12.1062 6.29527 12.1361 6.34455 12.1566C6.39383 12.177 6.44666 12.1875 6.50001 12.1875C6.55335 12.1875 6.60618 12.177 6.65546 12.1566C6.70474 12.1361 6.74952 12.1062 6.78722 12.0685L10.4435 8.41222C10.5003 8.3554 10.5389 8.28303 10.5546 8.20423C10.5703 8.12544 10.5622 8.04377 10.5315 7.96955C10.5008 7.89532 10.4487 7.83188 10.3819 7.78724C10.3151 7.7426 10.2366 7.71877 10.1563 7.71875Z" fill="#AFB2BD"/>
</svg>
