<svg width="20" height="23" viewBox="0 0 20 23" fill="none" xmlns="http://www.w3.org/2000/svg">
<path d="M4.69545 19.2228C4.89759 19.2228 5.09173 19.1424 5.23475 18.9993L18.9996 5.2349C19.1426 5.09187 19.2231 4.89774 19.2231 4.69559C19.2231 4.49307 19.1426 4.29932 18.9996 4.15629L15.0662 0.223264C14.7683 -0.0742305 14.2854 -0.0746119 13.9876 0.223264L0.223502 13.9881C0.080476 14.1311 0 14.3253 0 14.5274V18.46C0 18.8811 0.341737 19.2228 0.762806 19.2228H4.69545ZM14.5269 1.84156L17.3813 4.69559L15.9312 6.14569L13.0772 3.29127L14.5269 1.84156ZM1.52561 14.8436L11.9986 4.36987L14.8526 7.22429L4.37927 17.6972H1.52561V14.8436Z" fill="white"/>
<path d="M19.2373 21.2227H1.31285C0.891786 21.2227 0.550049 21.5644 0.550049 21.9855C0.550049 22.4065 0.891786 22.7483 1.31285 22.7483H19.2373C19.6583 22.7483 20.0001 22.4065 20.0001 21.9855C20.0001 21.5644 19.6583 21.2227 19.2373 21.2227Z" fill="white"/>
</svg>
